<mxfile host="65bd71144e">
    <diagram id="akMerkcE5Y6wvn5IADwK" name="Sayfa -1">
        <mxGraphModel dx="2227" dy="997" grid="1" gridSize="10" guides="1" tooltips="1" connect="1" arrows="1" fold="1" page="1" pageScale="1" pageWidth="827" pageHeight="1169" math="0" shadow="0">
            <root>
                <mxCell id="0"/>
                <mxCell id="1" parent="0"/>
                <mxCell id="6" style="edgeStyle=none;html=1;exitX=0;exitY=0.5;exitDx=0;exitDy=0;fontSize=12;entryX=0.5;entryY=0;entryDx=0;entryDy=0;" edge="1" parent="1" source="4" target="5">
                    <mxGeometry relative="1" as="geometry">
                        <mxPoint x="330" y="90" as="targetPoint"/>
                        <Array as="points">
                            <mxPoint x="300" y="90"/>
                        </Array>
                    </mxGeometry>
                </mxCell>
                <mxCell id="9" style="edgeStyle=none;html=1;exitX=1;exitY=0.5;exitDx=0;exitDy=0;fontSize=12;entryX=0.5;entryY=0;entryDx=0;entryDy=0;" edge="1" parent="1" source="4" target="8">
                    <mxGeometry relative="1" as="geometry">
                        <mxPoint x="640" y="90" as="targetPoint"/>
                        <Array as="points">
                            <mxPoint x="536" y="90"/>
                        </Array>
                    </mxGeometry>
                </mxCell>
                <mxCell id="14" style="edgeStyle=none;html=1;exitX=0.5;exitY=1;exitDx=0;exitDy=0;entryX=0.5;entryY=0;entryDx=0;entryDy=0;fontSize=12;" edge="1" parent="1" source="4" target="10">
                    <mxGeometry relative="1" as="geometry"/>
                </mxCell>
                <mxCell id="4" value="&lt;h3&gt;Serverless Host&lt;/h3&gt;" style="rounded=0;whiteSpace=wrap;html=1;" vertex="1" parent="1">
                    <mxGeometry x="360" y="50" width="116" height="80" as="geometry"/>
                </mxCell>
                <mxCell id="12" style="edgeStyle=none;html=1;exitX=1;exitY=0.5;exitDx=0;exitDy=0;fontSize=12;" edge="1" parent="1" source="5" target="10">
                    <mxGeometry relative="1" as="geometry"/>
                </mxCell>
                <mxCell id="5" value="&lt;h6 style=&quot;font-size: 12px&quot;&gt;Emacs Function Blocks&lt;/h6&gt;" style="rounded=1;whiteSpace=wrap;html=1;fontSize=20;fontStyle=1" vertex="1" parent="1">
                    <mxGeometry x="240" y="160" width="120" height="60" as="geometry"/>
                </mxCell>
                <mxCell id="13" style="edgeStyle=none;html=1;exitX=0;exitY=0.5;exitDx=0;exitDy=0;entryX=1;entryY=0.5;entryDx=0;entryDy=0;fontSize=12;" edge="1" parent="1" source="8" target="10">
                    <mxGeometry relative="1" as="geometry"/>
                </mxCell>
                <mxCell id="8" value="&lt;h6 style=&quot;font-size: 12px&quot;&gt;Javascript Function Blocks&lt;/h6&gt;" style="rounded=1;whiteSpace=wrap;html=1;fontSize=20;fontStyle=1" vertex="1" parent="1">
                    <mxGeometry x="476" y="160" width="120" height="60" as="geometry"/>
                </mxCell>
                <mxCell id="16" value="" style="edgeStyle=none;html=1;fontSize=12;" edge="1" parent="1" source="10" target="15">
                    <mxGeometry relative="1" as="geometry"/>
                </mxCell>
                <mxCell id="10" value="" style="shape=image;html=1;verticalLabelPosition=bottom;verticalAlign=top;imageAspect=0;image=img/clipart/Gear_128x128.png;fontSize=12;" vertex="1" parent="1">
                    <mxGeometry x="393" y="150" width="50" height="60" as="geometry"/>
                </mxCell>
                <mxCell id="20" style="edgeStyle=none;html=1;fontSize=12;" edge="1" parent="1" source="15">
                    <mxGeometry relative="1" as="geometry">
                        <mxPoint x="320" y="320" as="targetPoint"/>
                    </mxGeometry>
                </mxCell>
                <mxCell id="21" style="edgeStyle=none;html=1;fontSize=12;" edge="1" parent="1" source="15">
                    <mxGeometry relative="1" as="geometry">
                        <mxPoint x="520" y="320" as="targetPoint"/>
                    </mxGeometry>
                </mxCell>
                <mxCell id="15" value="" style="shape=singleArrow;whiteSpace=wrap;html=1;arrowWidth=0.4;arrowSize=0.4;verticalAlign=top;direction=south;" vertex="1" parent="1">
                    <mxGeometry x="388" y="280" width="60" height="80" as="geometry"/>
                </mxCell>
                <mxCell id="60" style="edgeStyle=none;html=1;fontSize=12;endArrow=oval;endFill=1;" edge="1" parent="1" source="17">
                    <mxGeometry relative="1" as="geometry">
                        <mxPoint x="418" y="400" as="targetPoint"/>
                    </mxGeometry>
                </mxCell>
                <mxCell id="17" value="Virutal Storage Before Request" style="shape=cylinder3;whiteSpace=wrap;html=1;boundedLbl=1;backgroundOutline=1;size=15;fontSize=12;" vertex="1" parent="1">
                    <mxGeometry x="368" y="500" width="100" height="110" as="geometry"/>
                </mxCell>
                <mxCell id="45" style="edgeStyle=none;html=1;fontSize=12;entryX=0.5;entryY=0;entryDx=0;entryDy=0;" edge="1" parent="1" source="23" target="36">
                    <mxGeometry relative="1" as="geometry">
                        <mxPoint x="100" y="320" as="targetPoint"/>
                        <Array as="points">
                            <mxPoint x="105" y="320"/>
                        </Array>
                    </mxGeometry>
                </mxCell>
                <mxCell id="23" value="&lt;i&gt;Data Storage From Emacs&lt;/i&gt;" style="html=1;whiteSpace=wrap;shape=isoCube2;backgroundOutline=1;isoAngle=15;fontSize=12;" vertex="1" parent="1">
                    <mxGeometry x="220" y="270" width="90" height="100" as="geometry"/>
                </mxCell>
                <mxCell id="46" style="edgeStyle=none;html=1;exitX=1;exitY=0.5;exitDx=0;exitDy=0;exitPerimeter=0;fontSize=12;entryX=0.5;entryY=0;entryDx=0;entryDy=0;" edge="1" parent="1" source="24" target="25">
                    <mxGeometry relative="1" as="geometry">
                        <mxPoint x="740" y="320" as="targetPoint"/>
                        <Array as="points">
                            <mxPoint x="731" y="320"/>
                        </Array>
                    </mxGeometry>
                </mxCell>
                <mxCell id="24" value="&lt;i&gt;Data Storage From JS&lt;/i&gt;" style="html=1;whiteSpace=wrap;shape=isoCube2;backgroundOutline=1;isoAngle=15;fontSize=12;direction=east;" vertex="1" parent="1">
                    <mxGeometry x="530" y="270" width="90" height="100" as="geometry"/>
                </mxCell>
                <mxCell id="56" style="edgeStyle=none;html=1;fontSize=12;endArrow=none;endFill=0;" edge="1" parent="1" source="25">
                    <mxGeometry relative="1" as="geometry">
                        <mxPoint x="480" y="400" as="targetPoint"/>
                        <Array as="points">
                            <mxPoint x="731" y="720"/>
                            <mxPoint x="520" y="720"/>
                            <mxPoint x="520" y="400"/>
                        </Array>
                    </mxGeometry>
                </mxCell>
                <mxCell id="25" value="CHAT LOG" style="swimlane;startSize=20;horizontal=1;childLayout=flowLayout;flowOrientation=north;resizable=0;interRankCellSpacing=50;containerType=tree;fontSize=12;" vertex="1" parent="1">
                    <mxGeometry x="596" y="390" width="270" height="280" as="geometry"/>
                </mxCell>
                <mxCell id="26" value="Input" style="whiteSpace=wrap;html=1;fontSize=12;" vertex="1" parent="25">
                    <mxGeometry x="85" y="40" width="100" height="40" as="geometry"/>
                </mxCell>
                <mxCell id="27" value="Save Chat Log" style="whiteSpace=wrap;html=1;fontSize=12;dashed=1;" vertex="1" parent="25">
                    <mxGeometry x="20" y="130" width="100" height="40" as="geometry"/>
                </mxCell>
                <mxCell id="28" value="" style="html=1;curved=1;fontSize=12;noEdgeStyle=1;orthogonal=1;" edge="1" parent="25" source="26" target="27">
                    <mxGeometry relative="1" as="geometry">
                        <Array as="points">
                            <mxPoint x="112.5" y="92"/>
                            <mxPoint x="70" y="118"/>
                        </Array>
                    </mxGeometry>
                </mxCell>
                <mxCell id="29" value="Update Chat Log" style="whiteSpace=wrap;html=1;fontSize=12;" vertex="1" parent="25">
                    <mxGeometry x="150" y="130" width="100" height="40" as="geometry"/>
                </mxCell>
                <mxCell id="30" value="" style="html=1;curved=1;fontSize=12;noEdgeStyle=1;orthogonal=1;" edge="1" parent="25" source="26" target="29">
                    <mxGeometry relative="1" as="geometry">
                        <Array as="points">
                            <mxPoint x="157.5" y="92"/>
                            <mxPoint x="200" y="118"/>
                        </Array>
                    </mxGeometry>
                </mxCell>
                <mxCell id="31" value="Return True" style="whiteSpace=wrap;html=1;fontSize=12;" vertex="1" parent="25">
                    <mxGeometry x="85" y="220" width="100" height="40" as="geometry"/>
                </mxCell>
                <mxCell id="32" value="" style="html=1;curved=1;fontSize=12;noEdgeStyle=1;orthogonal=1;" edge="1" parent="25" source="27" target="31">
                    <mxGeometry relative="1" as="geometry">
                        <Array as="points">
                            <mxPoint x="70" y="182"/>
                            <mxPoint x="112.5" y="208"/>
                        </Array>
                    </mxGeometry>
                </mxCell>
                <mxCell id="33" value="" style="html=1;curved=1;fontSize=12;noEdgeStyle=1;orthogonal=1;" edge="1" parent="25" source="29" target="31">
                    <mxGeometry relative="1" as="geometry">
                        <Array as="points">
                            <mxPoint x="200" y="182"/>
                            <mxPoint x="157.5" y="208"/>
                        </Array>
                    </mxGeometry>
                </mxCell>
                <mxCell id="57" style="edgeStyle=none;html=1;exitX=0.5;exitY=1;exitDx=0;exitDy=0;fontSize=12;endArrow=none;endFill=0;" edge="1" parent="1" source="36">
                    <mxGeometry relative="1" as="geometry">
                        <mxPoint x="480" y="400" as="targetPoint"/>
                        <Array as="points">
                            <mxPoint x="105" y="720"/>
                            <mxPoint x="320" y="720"/>
                            <mxPoint x="320" y="400"/>
                        </Array>
                    </mxGeometry>
                </mxCell>
                <mxCell id="36" value="MEMORY" style="swimlane;startSize=20;horizontal=1;childLayout=flowLayout;flowOrientation=north;resizable=0;interRankCellSpacing=50;containerType=tree;fontSize=12;" vertex="1" parent="1">
                    <mxGeometry x="-30" y="390" width="270" height="280" as="geometry"/>
                </mxCell>
                <mxCell id="37" value="Make Virutal Env" style="whiteSpace=wrap;html=1;fontSize=12;" vertex="1" parent="36">
                    <mxGeometry x="85" y="40" width="100" height="40" as="geometry"/>
                </mxCell>
                <mxCell id="38" value="Write Data" style="whiteSpace=wrap;html=1;fontSize=12;" vertex="1" parent="36">
                    <mxGeometry x="20" y="130" width="100" height="40" as="geometry"/>
                </mxCell>
                <mxCell id="39" value="" style="html=1;curved=1;fontSize=12;noEdgeStyle=1;orthogonal=1;" edge="1" parent="36" source="37" target="38">
                    <mxGeometry relative="1" as="geometry">
                        <Array as="points">
                            <mxPoint x="112.5" y="92"/>
                            <mxPoint x="70" y="118"/>
                        </Array>
                    </mxGeometry>
                </mxCell>
                <mxCell id="40" value="Delete Data" style="whiteSpace=wrap;html=1;fontSize=12;" vertex="1" parent="36">
                    <mxGeometry x="150" y="130" width="100" height="40" as="geometry"/>
                </mxCell>
                <mxCell id="41" value="" style="html=1;curved=1;fontSize=12;noEdgeStyle=1;orthogonal=1;" edge="1" parent="36" source="37" target="40">
                    <mxGeometry relative="1" as="geometry">
                        <Array as="points">
                            <mxPoint x="157.5" y="92"/>
                            <mxPoint x="200" y="118"/>
                        </Array>
                    </mxGeometry>
                </mxCell>
                <mxCell id="42" value="Retrun True" style="whiteSpace=wrap;html=1;fontSize=12;" vertex="1" parent="36">
                    <mxGeometry x="85" y="220" width="100" height="40" as="geometry"/>
                </mxCell>
                <mxCell id="43" value="" style="html=1;curved=1;fontSize=12;noEdgeStyle=1;orthogonal=1;" edge="1" parent="36" source="38" target="42">
                    <mxGeometry relative="1" as="geometry">
                        <Array as="points">
                            <mxPoint x="70" y="182"/>
                            <mxPoint x="112.5" y="208"/>
                        </Array>
                    </mxGeometry>
                </mxCell>
                <mxCell id="44" value="" style="html=1;curved=1;fontSize=12;noEdgeStyle=1;orthogonal=1;" edge="1" parent="36" source="40" target="42">
                    <mxGeometry relative="1" as="geometry">
                        <Array as="points">
                            <mxPoint x="200" y="182"/>
                            <mxPoint x="157.5" y="208"/>
                        </Array>
                    </mxGeometry>
                </mxCell>
                <mxCell id="48" value="User Input&amp;nbsp;" style="shape=callout;whiteSpace=wrap;html=1;perimeter=calloutPerimeter;fontSize=12;dashed=1;sketch=0;shadow=0;rounded=1;fillColor=default;" vertex="1" parent="1">
                    <mxGeometry x="707" y="100" width="120" height="80" as="geometry"/>
                </mxCell>
                <mxCell id="53" value="" style="endArrow=oval;html=1;fontSize=12;entryX=0.611;entryY=-0.012;entryDx=0;entryDy=0;entryPerimeter=0;endFill=1;" edge="1" parent="1" source="48" target="25">
                    <mxGeometry relative="1" as="geometry">
                        <mxPoint x="707" y="270" as="sourcePoint"/>
                        <mxPoint x="867" y="270" as="targetPoint"/>
                        <Array as="points">
                            <mxPoint x="797" y="260"/>
                        </Array>
                    </mxGeometry>
                </mxCell>
                <mxCell id="55" value="String" style="edgeLabel;resizable=0;html=1;align=left;verticalAlign=bottom;fontSize=12;" connectable="0" vertex="1" parent="53">
                    <mxGeometry x="-1" relative="1" as="geometry">
                        <mxPoint x="-24" y="100" as="offset"/>
                    </mxGeometry>
                </mxCell>
                <mxCell id="62" value="" style="edgeStyle=segmentEdgeStyle;endArrow=classic;html=1;fontSize=12;" edge="1" parent="1">
                    <mxGeometry width="50" height="50" relative="1" as="geometry">
                        <mxPoint x="250" y="710" as="sourcePoint"/>
                        <mxPoint x="300" y="660" as="targetPoint"/>
                    </mxGeometry>
                </mxCell>
                <mxCell id="63" value="" style="edgeStyle=segmentEdgeStyle;endArrow=classic;html=1;fontSize=12;strokeColor=default;" edge="1" parent="1">
                    <mxGeometry width="50" height="50" relative="1" as="geometry">
                        <mxPoint x="590" y="710" as="sourcePoint"/>
                        <mxPoint x="540" y="660" as="targetPoint"/>
                    </mxGeometry>
                </mxCell>
                <mxCell id="65" value="" style="shape=flexArrow;endArrow=classic;startArrow=classic;html=1;fontSize=12;strokeColor=default;sketch=0;" edge="1" parent="1">
                    <mxGeometry width="100" height="100" relative="1" as="geometry">
                        <mxPoint x="417.5" y="750" as="sourcePoint"/>
                        <mxPoint x="417.5" y="620" as="targetPoint"/>
                    </mxGeometry>
                </mxCell>
                <mxCell id="80" style="edgeStyle=none;sketch=0;html=1;fontSize=12;endArrow=classic;endFill=1;strokeColor=default;entryX=0;entryY=0.5;entryDx=0;entryDy=0;strokeWidth=2;" edge="1" parent="1" source="67" target="77">
                    <mxGeometry relative="1" as="geometry">
                        <mxPoint x="80" y="1000" as="targetPoint"/>
                        <Array as="points">
                            <mxPoint x="80" y="815"/>
                            <mxPoint x="80" y="985"/>
                        </Array>
                    </mxGeometry>
                </mxCell>
                <mxCell id="67" value="Make Request" style="ellipse;whiteSpace=wrap;html=1;aspect=fixed;rounded=1;shadow=0;dashed=1;sketch=0;fontSize=12;" vertex="1" parent="1">
                    <mxGeometry x="373" y="770" width="90" height="90" as="geometry"/>
                </mxCell>
                <mxCell id="105" style="edgeStyle=none;sketch=0;html=1;exitX=1;exitY=0.5;exitDx=0;exitDy=0;entryX=0;entryY=0.5;entryDx=0;entryDy=0;fontSize=13;startArrow=open;startFill=0;endArrow=classic;endFill=1;strokeColor=default;strokeWidth=1;" edge="1" parent="1" source="77" target="104">
                    <mxGeometry relative="1" as="geometry"/>
                </mxCell>
                <mxCell id="77" value="" style="shape=ext;double=1;rounded=1;whiteSpace=wrap;html=1;shadow=0;dashed=1;sketch=0;fontSize=12;" vertex="1" parent="1">
                    <mxGeometry x="158" y="890" width="562" height="190" as="geometry"/>
                </mxCell>
                <mxCell id="92" style="edgeStyle=none;sketch=0;html=1;entryX=1;entryY=0.5;entryDx=0;entryDy=0;fontSize=12;startArrow=open;startFill=0;endArrow=classic;endFill=1;strokeColor=default;strokeWidth=1;" edge="1" parent="1" source="79" target="88">
                    <mxGeometry relative="1" as="geometry"/>
                </mxCell>
                <mxCell id="98" style="edgeStyle=none;sketch=0;html=1;exitX=1;exitY=0.5;exitDx=0;exitDy=0;fontSize=11;startArrow=open;startFill=0;endArrow=classic;endFill=1;strokeColor=default;strokeWidth=1;" edge="1" parent="1" source="79">
                    <mxGeometry relative="1" as="geometry">
                        <mxPoint x="550" y="985" as="targetPoint"/>
                    </mxGeometry>
                </mxCell>
                <mxCell id="79" value="" style="shape=image;html=1;verticalLabelPosition=bottom;verticalAlign=top;imageAspect=0;image=img/clipart/Gear_128x128.png;rounded=1;shadow=0;dashed=1;sketch=0;fontSize=12;strokeColor=default;fillColor=#030202;gradientColor=none;" vertex="1" parent="1">
                    <mxGeometry x="426" y="955" width="50" height="60" as="geometry"/>
                </mxCell>
                <mxCell id="85" style="edgeStyle=none;sketch=0;html=1;entryX=0;entryY=0.5;entryDx=0;entryDy=0;fontSize=12;endArrow=classic;endFill=1;strokeColor=default;strokeWidth=2;" edge="1" parent="1" source="81" target="77">
                    <mxGeometry relative="1" as="geometry"/>
                </mxCell>
                <mxCell id="86" style="edgeStyle=none;sketch=0;html=1;fontSize=12;endArrow=classic;endFill=1;strokeColor=default;strokeWidth=1;entryX=0.25;entryY=0;entryDx=0;entryDy=0;startArrow=open;startFill=0;" edge="1" parent="1" source="81" target="36">
                    <mxGeometry relative="1" as="geometry">
                        <mxPoint x="40" y="360" as="targetPoint"/>
                        <Array as="points">
                            <mxPoint x="235" y="1120"/>
                            <mxPoint x="-80" y="1120"/>
                            <mxPoint x="-80" y="360"/>
                            <mxPoint x="38" y="360"/>
                        </Array>
                    </mxGeometry>
                </mxCell>
                <mxCell id="81" value="Write Data" style="whiteSpace=wrap;html=1;align=center;verticalAlign=middle;treeFolding=1;treeMoving=1;newEdgeStyle={&quot;edgeStyle&quot;:&quot;elbowEdgeStyle&quot;,&quot;startArrow&quot;:&quot;none&quot;,&quot;endArrow&quot;:&quot;none&quot;};rounded=1;shadow=0;dashed=1;sketch=0;fontSize=12;strokeColor=default;fillColor=#030202;gradientColor=none;" vertex="1" parent="1">
                    <mxGeometry x="190" y="955" width="90" height="60" as="geometry"/>
                </mxCell>
                <mxCell id="82" value="" style="edgeStyle=elbowEdgeStyle;elbow=vertical;startArrow=none;endArrow=none;rounded=0;sketch=0;fontSize=12;strokeColor=default;strokeWidth=2;" edge="1" target="81" parent="1" source="77">
                    <mxGeometry relative="1" as="geometry">
                        <mxPoint x="390" y="710" as="sourcePoint"/>
                        <Array as="points">
                            <mxPoint x="220" y="930"/>
                            <mxPoint x="370" y="770"/>
                        </Array>
                    </mxGeometry>
                </mxCell>
                <mxCell id="89" style="edgeStyle=none;sketch=0;html=1;fontSize=12;startArrow=open;startFill=0;endArrow=classic;endFill=1;strokeColor=default;strokeWidth=1;entryX=1;entryY=0.5;entryDx=0;entryDy=0;" edge="1" parent="1" source="88" target="8">
                    <mxGeometry relative="1" as="geometry">
                        <mxPoint x="920" y="200" as="targetPoint"/>
                        <Array as="points">
                            <mxPoint x="343" y="1120"/>
                            <mxPoint x="920" y="1120"/>
                            <mxPoint x="920" y="190"/>
                        </Array>
                    </mxGeometry>
                </mxCell>
                <mxCell id="88" value="AI Functions" style="whiteSpace=wrap;html=1;align=center;verticalAlign=middle;treeFolding=1;treeMoving=1;newEdgeStyle={&quot;edgeStyle&quot;:&quot;elbowEdgeStyle&quot;,&quot;startArrow&quot;:&quot;none&quot;,&quot;endArrow&quot;:&quot;none&quot;};rounded=1;shadow=0;dashed=1;sketch=0;fontSize=12;strokeColor=default;fillColor=#030202;gradientColor=none;" vertex="1" parent="1">
                    <mxGeometry x="298" y="955" width="90" height="60" as="geometry"/>
                </mxCell>
                <mxCell id="93" value="&lt;h6 style=&quot;font-size: 11px&quot;&gt;Run AI&lt;/h6&gt;" style="text;strokeColor=none;fillColor=none;html=1;fontSize=24;fontStyle=1;verticalAlign=middle;align=center;rounded=1;shadow=0;dashed=1;sketch=0;" vertex="1" parent="1">
                    <mxGeometry x="401" y="1010" width="100" height="40" as="geometry"/>
                </mxCell>
                <mxCell id="94" value="Remove Duplicated Data" style="whiteSpace=wrap;html=1;rounded=1;arcSize=50;align=center;verticalAlign=middle;strokeWidth=1;autosize=1;spacing=4;treeFolding=1;treeMoving=1;newEdgeStyle={&quot;edgeStyle&quot;:&quot;entityRelationEdgeStyle&quot;,&quot;startArrow&quot;:&quot;none&quot;,&quot;endArrow&quot;:&quot;none&quot;,&quot;segment&quot;:10,&quot;curved&quot;:1};shadow=0;dashed=1;sketch=0;fontSize=11;fillColor=#030202;gradientColor=none;" vertex="1" parent="1">
                    <mxGeometry x="443" y="900" width="160" height="30" as="geometry"/>
                </mxCell>
                <mxCell id="95" value="" style="edgeStyle=entityRelationEdgeStyle;startArrow=none;endArrow=none;segment=10;curved=1;sketch=0;fontSize=11;strokeColor=default;strokeWidth=1;exitX=0.5;exitY=0;exitDx=0;exitDy=0;entryX=0.5;entryY=1;entryDx=0;entryDy=0;" edge="1" target="94" parent="1" source="79">
                    <mxGeometry relative="1" as="geometry">
                        <mxPoint x="436" y="950" as="sourcePoint"/>
                    </mxGeometry>
                </mxCell>
                <mxCell id="102" style="edgeStyle=none;sketch=0;html=1;exitX=1;exitY=0.3;exitDx=0;exitDy=0;entryX=1;entryY=0.5;entryDx=0;entryDy=0;fontSize=13;startArrow=open;startFill=0;endArrow=classic;endFill=1;strokeColor=default;strokeWidth=1;" edge="1" parent="1" source="99" target="77">
                    <mxGeometry relative="1" as="geometry"/>
                </mxCell>
                <mxCell id="99" value="Array Stacks" style="shape=datastore;whiteSpace=wrap;html=1;rounded=1;shadow=0;dashed=1;sketch=0;fontSize=13;strokeColor=default;fillColor=#030202;gradientColor=none;" vertex="1" parent="1">
                    <mxGeometry x="550" y="940" width="120" height="120" as="geometry"/>
                </mxCell>
                <mxCell id="103" value="Result" style="shape=hexagon;perimeter=hexagonPerimeter2;whiteSpace=wrap;html=1;fixedSize=1;rounded=1;shadow=0;dashed=1;sketch=0;fontSize=13;strokeColor=default;fillColor=#030202;gradientColor=none;" vertex="1" parent="1">
                    <mxGeometry x="358" y="1220" width="120" height="80" as="geometry"/>
                </mxCell>
                <mxCell id="106" style="edgeStyle=none;sketch=0;html=1;fontSize=13;startArrow=open;startFill=0;endArrow=classic;endFill=1;strokeColor=default;strokeWidth=1;entryX=0.5;entryY=0;entryDx=0;entryDy=0;" edge="1" parent="1" source="104" target="103">
                    <mxGeometry relative="1" as="geometry">
                        <mxPoint x="420" y="1170" as="targetPoint"/>
                        <Array as="points">
                            <mxPoint x="830" y="1170"/>
                            <mxPoint x="418" y="1170"/>
                        </Array>
                    </mxGeometry>
                </mxCell>
                <mxCell id="104" value="Select The Most Similar Answer" style="label;whiteSpace=wrap;html=1;image=img/clipart/Gear_128x128.png;rounded=1;shadow=0;dashed=1;sketch=0;fontSize=13;strokeColor=default;fillColor=#030202;gradientColor=none;" vertex="1" parent="1">
                    <mxGeometry x="760" y="960" width="140" height="60" as="geometry"/>
                </mxCell>
            </root>
        </mxGraphModel>
    </diagram>
</mxfile>